<mxfile host="65bd71144e">
    <diagram id="A_LQHSmV9e86PuekiW72" name="Page-1">
        <mxGraphModel dx="576" dy="432" grid="1" gridSize="10" guides="1" tooltips="1" connect="1" arrows="1" fold="1" page="1" pageScale="1" pageWidth="850" pageHeight="1100" math="0" shadow="0">
            <root>
                <mxCell id="0"/>
                <mxCell id="1" parent="0"/>
                <mxCell id="2" value="ReportingModule" style="shape=umlLifeline;perimeter=lifelinePerimeter;whiteSpace=wrap;html=1;container=1;collapsible=0;recursiveResize=0;outlineConnect=0;rounded=1;shadow=0;comic=0;labelBackgroundColor=none;strokeWidth=1;fontFamily=Verdana;fontSize=12;align=center;" vertex="1" parent="1">
                    <mxGeometry x="840" y="350" width="110" height="40" as="geometry"/>
                </mxCell>
                <mxCell id="3" value="" style="endArrow=none;dashed=1;html=1;rounded=0;" edge="1" parent="1" source="10" target="2">
                    <mxGeometry width="50" height="50" relative="1" as="geometry">
                        <mxPoint x="840" y="1000" as="sourcePoint"/>
                        <mxPoint x="740" y="200" as="targetPoint"/>
                    </mxGeometry>
                </mxCell>
                <mxCell id="4" value="" style="line;strokeWidth=4;html=1;perimeter=backbonePerimeter;points=[];outlineConnect=0;" vertex="1" parent="1">
                    <mxGeometry x="10" y="460" width="1080" height="10" as="geometry"/>
                </mxCell>
                <mxCell id="5" value="&lt;b&gt;View Room Occupancy Report&lt;/b&gt;" style="shape=umlLifeline;perimeter=lifelinePerimeter;whiteSpace=wrap;html=1;container=1;collapsible=0;recursiveResize=0;outlineConnect=0;rounded=1;shadow=0;comic=0;labelBackgroundColor=none;strokeWidth=1;fontFamily=Verdana;fontSize=12;align=center;" vertex="1" parent="1">
                    <mxGeometry x="445" y="445" width="210" height="40" as="geometry"/>
                </mxCell>
                <mxCell id="6" value="Navigate to reporting section" style="text;html=1;align=center;verticalAlign=middle;resizable=0;points=[];autosize=1;strokeColor=none;fillColor=none;" vertex="1" parent="1">
                    <mxGeometry x="555" y="490" width="180" height="30" as="geometry"/>
                </mxCell>
                <mxCell id="7" value="Select &quot;Room Occupancy&quot;" style="text;html=1;align=center;verticalAlign=middle;resizable=0;points=[];autosize=1;strokeColor=none;fillColor=none;" vertex="1" parent="1">
                    <mxGeometry x="555" y="520" width="160" height="30" as="geometry"/>
                </mxCell>
                <mxCell id="8" value="Generate room occupancy report" style="text;html=1;align=center;verticalAlign=middle;resizable=0;points=[];autosize=1;strokeColor=none;fillColor=none;" vertex="1" parent="1">
                    <mxGeometry x="550" y="550" width="200" height="30" as="geometry"/>
                </mxCell>
                <mxCell id="9" value="Notify report generation error" style="text;html=1;align=center;verticalAlign=middle;resizable=0;points=[];autosize=1;strokeColor=none;fillColor=none;" vertex="1" parent="1">
                    <mxGeometry x="545" y="680" width="180" height="30" as="geometry"/>
                </mxCell>
                <mxCell id="10" value="ReportingModule" style="shape=umlLifeline;perimeter=lifelinePerimeter;whiteSpace=wrap;html=1;container=1;collapsible=0;recursiveResize=0;outlineConnect=0;rounded=1;shadow=0;comic=0;labelBackgroundColor=none;strokeWidth=1;fontFamily=Verdana;fontSize=12;align=center;" vertex="1" parent="1">
                    <mxGeometry x="845" y="930" width="100" height="40" as="geometry"/>
                </mxCell>
                <mxCell id="11" value="" style="html=1;verticalAlign=bottom;endArrow=block;labelBackgroundColor=none;fontFamily=Verdana;fontSize=12;edgeStyle=elbowEdgeStyle;elbow=vertical;" edge="1" parent="1">
                    <mxGeometry relative="1" as="geometry">
                        <mxPoint x="890" y="604.58" as="sourcePoint"/>
                        <mxPoint x="695" y="604.58" as="targetPoint"/>
                        <Array as="points">
                            <mxPoint x="685" y="605.08"/>
                        </Array>
                    </mxGeometry>
                </mxCell>
                <mxCell id="12" value="" style="html=1;verticalAlign=bottom;endArrow=block;labelBackgroundColor=none;fontFamily=Verdana;fontSize=12;edgeStyle=elbowEdgeStyle;elbow=vertical;" edge="1" parent="1">
                    <mxGeometry relative="1" as="geometry">
                        <mxPoint x="550" y="635.0600000000001" as="sourcePoint"/>
                        <mxPoint x="120" y="634.58" as="targetPoint"/>
                    </mxGeometry>
                </mxCell>
                <mxCell id="13" value="Display room occupancy report in dashboard view" style="text;html=1;align=center;verticalAlign=middle;resizable=0;points=[];autosize=1;strokeColor=none;fillColor=none;" vertex="1" parent="1">
                    <mxGeometry x="550" y="620" width="290" height="30" as="geometry"/>
                </mxCell>
                <mxCell id="14" value="" style="html=1;verticalAlign=bottom;endArrow=block;labelBackgroundColor=none;fontFamily=Verdana;fontSize=12;edgeStyle=elbowEdgeStyle;elbow=vertical;entryX=0.015;entryY=0.4;entryDx=0;entryDy=0;entryPerimeter=0;" edge="1" parent="1">
                    <mxGeometry relative="1" as="geometry">
                        <mxPoint x="118" y="504.99" as="sourcePoint"/>
                        <mxPoint x="550" y="504.5" as="targetPoint"/>
                    </mxGeometry>
                </mxCell>
                <mxCell id="15" value="" style="html=1;verticalAlign=bottom;endArrow=block;labelBackgroundColor=none;fontFamily=Verdana;fontSize=12;edgeStyle=elbowEdgeStyle;elbow=vertical;" edge="1" parent="1">
                    <mxGeometry relative="1" as="geometry">
                        <mxPoint x="760" y="565" as="sourcePoint"/>
                        <mxPoint x="890" y="564.59" as="targetPoint"/>
                    </mxGeometry>
                </mxCell>
                <mxCell id="16" value="System&amp;nbsp;" style="shape=umlLifeline;perimeter=lifelinePerimeter;whiteSpace=wrap;html=1;container=1;collapsible=0;recursiveResize=0;outlineConnect=0;rounded=1;shadow=0;comic=0;labelBackgroundColor=none;strokeWidth=1;fontFamily=Verdana;fontSize=12;align=center;" vertex="1" parent="1">
                    <mxGeometry x="500" y="930" width="100" height="40" as="geometry"/>
                </mxCell>
                <mxCell id="17" value="Administrator&amp;nbsp;" style="shape=umlActor;verticalLabelPosition=bottom;verticalAlign=top;html=1;outlineConnect=0;" vertex="1" parent="1">
                    <mxGeometry x="104" y="910" width="30" height="60" as="geometry"/>
                </mxCell>
                <mxCell id="18" value="" style="html=1;verticalAlign=bottom;endArrow=block;labelBackgroundColor=none;fontFamily=Verdana;fontSize=12;edgeStyle=elbowEdgeStyle;elbow=vertical;entryX=0.015;entryY=0.4;entryDx=0;entryDy=0;entryPerimeter=0;" edge="1" parent="1">
                    <mxGeometry relative="1" as="geometry">
                        <mxPoint x="118" y="530.49" as="sourcePoint"/>
                        <mxPoint x="550" y="530" as="targetPoint"/>
                    </mxGeometry>
                </mxCell>
                <mxCell id="19" value="Return generated report" style="text;html=1;align=center;verticalAlign=middle;resizable=0;points=[];autosize=1;strokeColor=none;fillColor=none;" vertex="1" parent="1">
                    <mxGeometry x="550" y="590" width="150" height="30" as="geometry"/>
                </mxCell>
                <mxCell id="20" value="&lt;b&gt;[Report generated successfully]&lt;/b&gt;" style="text;html=1;align=center;verticalAlign=middle;resizable=0;points=[];autosize=1;strokeColor=none;fillColor=none;" vertex="1" parent="1">
                    <mxGeometry x="110" y="570" width="210" height="30" as="geometry"/>
                </mxCell>
                <mxCell id="21" value="&lt;b&gt;[Report generation error]&lt;/b&gt;" style="text;html=1;align=center;verticalAlign=middle;resizable=0;points=[];autosize=1;strokeColor=none;fillColor=none;" vertex="1" parent="1">
                    <mxGeometry x="110" y="650" width="170" height="30" as="geometry"/>
                </mxCell>
                <mxCell id="22" value="" style="html=1;verticalAlign=bottom;endArrow=block;labelBackgroundColor=none;fontFamily=Verdana;fontSize=12;edgeStyle=elbowEdgeStyle;elbow=vertical;" edge="1" parent="1">
                    <mxGeometry relative="1" as="geometry">
                        <mxPoint x="890" y="695" as="sourcePoint"/>
                        <mxPoint x="720" y="694.58" as="targetPoint"/>
                        <Array as="points">
                            <mxPoint x="710" y="695.08"/>
                        </Array>
                    </mxGeometry>
                </mxCell>
                <mxCell id="23" value="Display error message" style="text;html=1;align=center;verticalAlign=middle;resizable=0;points=[];autosize=1;strokeColor=none;fillColor=none;" vertex="1" parent="1">
                    <mxGeometry x="550" y="710" width="140" height="30" as="geometry"/>
                </mxCell>
                <mxCell id="24" value="" style="html=1;verticalAlign=bottom;endArrow=block;labelBackgroundColor=none;fontFamily=Verdana;fontSize=12;edgeStyle=elbowEdgeStyle;elbow=vertical;" edge="1" parent="1">
                    <mxGeometry relative="1" as="geometry">
                        <mxPoint x="550" y="725.06" as="sourcePoint"/>
                        <mxPoint x="120" y="724.5799999999999" as="targetPoint"/>
                    </mxGeometry>
                </mxCell>
                <mxCell id="25" value="" style="html=1;verticalAlign=bottom;endArrow=block;labelBackgroundColor=none;fontFamily=Verdana;fontSize=12;edgeStyle=elbowEdgeStyle;elbow=vertical;" edge="1" parent="1">
                    <mxGeometry relative="1" as="geometry">
                        <mxPoint x="550" y="760.48" as="sourcePoint"/>
                        <mxPoint x="120" y="760" as="targetPoint"/>
                    </mxGeometry>
                </mxCell>
                <mxCell id="26" value="Notify administrator to try again or contact IT support" style="text;html=1;align=center;verticalAlign=middle;resizable=0;points=[];autosize=1;strokeColor=none;fillColor=none;" vertex="1" parent="1">
                    <mxGeometry x="550" y="740" width="300" height="30" as="geometry"/>
                </mxCell>
                <mxCell id="27" value="" style="edgeStyle=elbowEdgeStyle;elbow=horizontal;endArrow=classic;html=1;curved=0;rounded=0;endSize=8;startSize=8;entryX=0.02;entryY=0.089;entryDx=0;entryDy=0;entryPerimeter=0;" edge="1" parent="1">
                    <mxGeometry width="50" height="50" relative="1" as="geometry">
                        <mxPoint x="552" y="780" as="sourcePoint"/>
                        <mxPoint x="550" y="803" as="targetPoint"/>
                        <Array as="points">
                            <mxPoint x="572" y="770"/>
                        </Array>
                    </mxGeometry>
                </mxCell>
                <mxCell id="28" value="" style="edgeStyle=elbowEdgeStyle;elbow=horizontal;endArrow=classic;html=1;curved=0;rounded=0;endSize=8;startSize=8;entryX=0.02;entryY=0.089;entryDx=0;entryDy=0;entryPerimeter=0;" edge="1" parent="1">
                    <mxGeometry width="50" height="50" relative="1" as="geometry">
                        <mxPoint x="552" y="827" as="sourcePoint"/>
                        <mxPoint x="550" y="850" as="targetPoint"/>
                        <Array as="points">
                            <mxPoint x="572" y="817"/>
                        </Array>
                    </mxGeometry>
                </mxCell>
                <mxCell id="29" value="" style="html=1;verticalAlign=bottom;endArrow=block;labelBackgroundColor=none;fontFamily=Verdana;fontSize=12;edgeStyle=elbowEdgeStyle;elbow=vertical;entryX=0.015;entryY=0.4;entryDx=0;entryDy=0;entryPerimeter=0;" edge="1" parent="1">
                    <mxGeometry relative="1" as="geometry">
                        <mxPoint x="118" y="885.25" as="sourcePoint"/>
                        <mxPoint x="550" y="884.76" as="targetPoint"/>
                    </mxGeometry>
                </mxCell>
                <mxCell id="30" value="Review the room occupancy report" style="text;html=1;align=center;verticalAlign=middle;resizable=0;points=[];autosize=1;strokeColor=none;fillColor=none;" vertex="1" parent="1">
                    <mxGeometry x="565" y="780" width="210" height="30" as="geometry"/>
                </mxCell>
                <mxCell id="31" value="Filter, sort, print or export the report" style="text;html=1;align=center;verticalAlign=middle;resizable=0;points=[];autosize=1;strokeColor=none;fillColor=none;" vertex="1" parent="1">
                    <mxGeometry x="565" y="820" width="210" height="30" as="geometry"/>
                </mxCell>
                <mxCell id="32" value="Navigate back to reporting section" style="text;html=1;align=center;verticalAlign=middle;resizable=0;points=[];autosize=1;strokeColor=none;fillColor=none;" vertex="1" parent="1">
                    <mxGeometry x="550" y="870" width="200" height="30" as="geometry"/>
                </mxCell>
                <mxCell id="33" value="" style="endArrow=none;dashed=1;html=1;rounded=0;" edge="1" parent="1" target="34">
                    <mxGeometry width="50" height="50" relative="1" as="geometry">
                        <mxPoint x="550" y="930" as="sourcePoint"/>
                        <mxPoint x="550" y="120" as="targetPoint"/>
                    </mxGeometry>
                </mxCell>
                <mxCell id="34" value="System&amp;nbsp;" style="shape=umlLifeline;perimeter=lifelinePerimeter;whiteSpace=wrap;html=1;container=1;collapsible=0;recursiveResize=0;outlineConnect=0;rounded=1;shadow=0;comic=0;labelBackgroundColor=none;strokeWidth=1;fontFamily=Verdana;fontSize=12;align=center;" vertex="1" parent="1">
                    <mxGeometry x="500" y="350" width="100" height="40" as="geometry"/>
                </mxCell>
                <mxCell id="35" value="" style="endArrow=none;dashed=1;html=1;rounded=0;" edge="1" parent="1" source="17">
                    <mxGeometry width="50" height="50" relative="1" as="geometry">
                        <mxPoint x="119" y="910" as="sourcePoint"/>
                        <mxPoint x="119" y="420" as="targetPoint"/>
                    </mxGeometry>
                </mxCell>
                <mxCell id="36" value="Administrator&amp;nbsp;" style="shape=umlActor;verticalLabelPosition=bottom;verticalAlign=top;html=1;outlineConnect=0;" vertex="1" parent="1">
                    <mxGeometry x="104" y="330" width="30" height="60" as="geometry"/>
                </mxCell>
            </root>
        </mxGraphModel>
    </diagram>
</mxfile>